<?xml version="1.0" encoding="iso-8859-1"?>
<!-- Generator: Adobe Illustrator 17.1.0, SVG Export Plug-In . SVG Version: 6.00 Build 0)  -->
<!DOCTYPE svg PUBLIC "-//W3C//DTD SVG 1.1//EN" "http://www.w3.org/Graphics/SVG/1.1/DTD/svg11.dtd">
<svg version="1.1" id="Capa_1" xmlns="http://www.w3.org/2000/svg" xmlns:xlink="http://www.w3.org/1999/xlink" x="0px" y="0px"
	 viewBox="0 0 100 100" style="enable-background:new 0 0 100 100;" xml:space="preserve">
<g>
	<path style="fill:#000100;" d="M87.092,10.149H12.908c-1.657,0-3,1.343-3,3v74.184c0,1.657,1.343,3,3,3h74.185c1.657,0,3-1.343,3-3
		V13.149C90.092,11.492,88.749,10.149,87.092,10.149z M31.211,76.13c0,1.105-0.895,2-2,2h-8.007c-1.104,0-2-0.895-2-2V41.133
		c0-1.105,0.896-2,2-2h8.007c1.105,0,2,0.895,2,2V76.13z M31.211,30.979c0,1.105-0.895,2-2,2h-8.007c-1.104,0-2-0.895-2-2v-7.11
		c0-1.105,0.896-2,2-2h8.007c1.105,0,2,0.895,2,2V30.979z M80.796,76.13c0,1.105-0.896,2-2,2h-8.007c-1.105,0-2-0.895-2-2V61.353
		c0-4.9-0.256-8.069-0.77-9.508c-0.513-1.439-1.346-2.557-2.5-3.354c-1.154-0.798-2.542-1.196-4.166-1.196
		c-2.08,0-3.946,0.57-5.598,1.709c-1.652,1.14-2.784,2.649-3.397,4.529c-0.612,1.88-0.918,5.356-0.918,10.426V76.13
		c0,1.105-0.896,2-2,2h-8.007c-1.104,0-2-0.895-2-2V41.133c0-1.105,0.896-2,2-2h7.152c1.105,0,2,0.895,2,2v2.666
		c0,1.105,0.541,1.283,1.284,0.466c3.736-4.105,8.293-6.158,13.672-6.158c2.649,0,5.07,0.477,7.264,1.431
		c2.193,0.954,3.853,2.172,4.978,3.653c1.125,1.481,1.909,3.162,2.35,5.042c0.441,1.88,0.663,4.572,0.663,8.076V76.13z"/>
</g>
</svg>
