<?xml version="1.0" encoding="iso-8859-1"?>
<!-- Generator: Adobe Illustrator 17.1.0, SVG Export Plug-In . SVG Version: 6.00 Build 0)  -->
<!DOCTYPE svg PUBLIC "-//W3C//DTD SVG 1.1//EN" "http://www.w3.org/Graphics/SVG/1.1/DTD/svg11.dtd">
<svg version="1.1" id="Capa_1" xmlns="http://www.w3.org/2000/svg" xmlns:xlink="http://www.w3.org/1999/xlink" x="0px" y="0px"
	 viewBox="0 0 100 100" style="enable-background:new 0 0 100 100;" xml:space="preserve">
<g>
	<path style="fill:#000100;" d="M91.032,3.269H8.968c-2.761,0-5,2.239-5,5v82.064c0,2.761,2.239,5,5,5h82.064c2.761,0,5-2.239,5-5
		V8.269C96.032,5.507,93.794,3.269,91.032,3.269z M88.567,27.907c-0.715,0.811-1.466,1.586-2.252,2.324
		c-1.742,1.634-3.301,3.231-3.29,3.821c0.006,0.314,0.009,0.67,0.009,1.067c0,4.406-0.644,8.803-1.932,13.192
		c-1.288,4.388-3.245,8.599-5.871,12.631c-2.627,4.033-5.753,7.599-9.379,10.7c-3.626,3.102-7.998,5.576-13.115,7.422
		c-5.117,1.847-10.591,2.77-16.419,2.77c-7.709,0-14.868-1.73-21.478-5.192c-2.116-1.108-2.851-2.074-1.756-2.02
		c0.631,0.031,1.293,0.046,1.985,0.046c6.149,0,11.757-1.52,16.826-4.562c2.048-1.229,1.587-2.422-0.71-3.076
		c-1.889-0.538-3.652-1.424-5.289-2.656c-1.609-1.211-2.929-2.613-3.961-4.206c-1.299-2.005-1.145-3.789-0.288-3.717
		c0.542,0.046,1.06,0.069,1.555,0.069c0.73,0,1.457-0.047,2.179-0.14c1.196-0.155,0.199-0.747-1.941-1.807
		c-2.03-1.005-3.812-2.432-5.346-4.28c-2.491-2.998-3.736-6.481-3.736-10.445c0,0,0-0.046,0-0.102s1.516,0.805,3.585,1.386
		s2.296-0.367,0.81-1.999c-0.884-0.97-1.654-2.054-2.311-3.251c-1.322-2.406-1.982-5.015-1.982-7.828c0-1.492,0.187-2.93,0.56-4.312
		c0.623-2.306,2.883-2.452,4.552-0.745c3.494,3.574,7.526,6.539,12.094,8.895c4.605,2.376,9.466,3.926,14.581,4.648
		c2.365,0.334,4.116-0.42,4.002-1.461c-0.07-0.639-0.105-1.27-0.105-1.891c0-4.541,1.601-8.413,4.804-11.616
		c3.202-3.202,7.074-4.803,11.615-4.803c3.242,0,6.137,0.807,8.683,2.422c2.017,1.279,5.229,2.426,7.493,1.666
		c0.808-0.271,1.604-0.574,2.388-0.909c2.196-0.938,3.317-0.062,2.025,1.947c-0.576,0.896-1.24,1.726-1.99,2.488
		c-1.675,1.702-1.463,2.474,0.853,1.889c0.379-0.096,0.758-0.199,1.137-0.309C89.446,25.294,90.146,26.115,88.567,27.907z"/>
</g>
</svg>
